<?xml version="1.0" encoding="UTF-8"?>
<svg xmlns="http://www.w3.org/2000/svg" xmlns:xlink="http://www.w3.org/1999/xlink" width="30px" height="30px" viewBox="0 0 30 30" version="1.1">
<g id="surface1">
<path style=" stroke:none;fill-rule:nonzero;fill:rgb(0%,0%,0%);fill-opacity:1;" d="M 3.148438 0.0585938 C 1.777344 0.292969 0.640625 1.273438 0.191406 2.601562 L 0.03125 3.074219 L -0.0078125 8.730469 L 30.007812 8.730469 L 29.96875 3.074219 L 29.808594 2.601562 C 29.425781 1.460938 28.542969 0.578125 27.398438 0.191406 L 26.925781 0.0273438 L 15.175781 0.0195312 C 8.714844 0.015625 3.300781 0.0351562 3.148438 0.0585938 Z M 5.09375 2.644531 C 6.960938 3.449219 6.417969 6.230469 4.398438 6.238281 C 3.058594 6.242188 2.160156 4.9375 2.632812 3.683594 C 2.992188 2.734375 4.15625 2.242188 5.09375 2.644531 Z M 10.042969 2.621094 C 11.296875 3.070312 11.644531 4.765625 10.679688 5.71875 C 9.96875 6.417969 8.785156 6.417969 8.070312 5.71875 C 6.640625 4.304688 8.144531 1.941406 10.042969 2.621094 Z M 10.042969 2.621094 "/>
<path style=" stroke:none;fill-rule:nonzero;fill:rgb(0%,0%,0%);fill-opacity:1;" d="M 0 19.363281 L 0 27.480469 L 19.980469 27.480469 L 19.980469 25.589844 L 19.578125 25.164062 C 16.269531 21.683594 17.027344 16.054688 21.136719 13.574219 C 23.824219 11.957031 27.261719 12.183594 29.664062 14.140625 L 30 14.414062 L 30 11.25 L 0 11.25 Z M 9.261719 14.414062 C 11.269531 14.792969 11.996094 17.289062 10.507812 18.695312 C 9.292969 19.84375 7.304688 19.480469 6.566406 17.972656 C 5.667969 16.140625 7.261719 14.035156 9.261719 14.414062 Z M 11.386719 20.710938 C 12.832031 21.085938 13.765625 22.355469 13.769531 23.949219 L 13.769531 24.375 L 11.261719 24.375 L 11.242188 23.929688 C 11.222656 23.511719 11.207031 23.472656 11.027344 23.3125 L 10.835938 23.144531 L 8.785156 23.144531 C 6.246094 23.144531 6.269531 23.136719 6.269531 23.996094 L 6.269531 24.375 L 3.75 24.375 L 3.75 23.859375 C 3.75 22.34375 4.683594 21.09375 6.09375 20.71875 C 6.570312 20.59375 10.902344 20.585938 11.386719 20.710938 Z M 11.386719 20.710938 "/>
<path style=" stroke:none;fill-rule:nonzero;fill:rgb(0%,0%,0%);fill-opacity:1;" d="M 24.160156 15.082031 C 19.75 15.925781 18.5 21.757812 22.226562 24.113281 L 22.5 24.285156 L 22.5 29.96875 L 23.746094 28.726562 L 24.992188 27.480469 L 26.234375 28.726562 L 27.480469 29.96875 L 27.480469 24.328125 L 27.847656 24.0625 C 31.328125 21.574219 30.359375 16.257812 26.222656 15.167969 C 25.667969 15.019531 24.695312 14.980469 24.160156 15.082031 Z M 24.160156 15.082031 "/>
</g>
</svg>
