<?xml version="1.0" encoding="UTF-8"?>
<svg xmlns="http://www.w3.org/2000/svg" xmlns:xlink="http://www.w3.org/1999/xlink" width="30px" height="30px" viewBox="0 0 30 30" version="1.1">
<g id="surface1">
<path style=" stroke:none;fill-rule:nonzero;fill:rgb(0%,0%,0%);fill-opacity:1;" d="M 6.898438 0.0585938 C 5.511719 0.296875 4.398438 1.253906 3.941406 2.601562 L 3.78125 3.074219 L 3.765625 15.277344 L 3.746094 27.480469 L 10.621094 27.464844 L 17.492188 27.449219 L 17.492188 25.046875 L 11.878906 25.035156 L 6.269531 25.019531 L 6.269531 3.414062 L 6.40625 3.15625 C 6.480469 3.015625 6.652344 2.820312 6.792969 2.722656 L 7.039062 2.546875 L 14.9375 2.535156 L 22.832031 2.519531 L 23.089844 2.652344 C 23.234375 2.730469 23.429688 2.902344 23.527344 3.039062 L 23.703125 3.289062 L 23.730469 9.210938 C 23.75 12.464844 23.746094 15.136719 23.726562 15.148438 C 23.710938 15.15625 23.578125 15.140625 23.433594 15.105469 C 22.972656 14.988281 21.769531 15.023438 21.242188 15.167969 C 17.105469 16.289062 16.183594 21.71875 19.71875 24.109375 L 19.980469 24.285156 L 19.984375 27.113281 C 19.988281 28.667969 20.007812 29.941406 20.027344 29.941406 C 20.050781 29.941406 20.613281 29.394531 21.285156 28.726562 L 22.5 27.507812 L 23.714844 28.726562 C 24.386719 29.394531 24.949219 29.941406 24.972656 29.941406 C 24.992188 29.941406 25.015625 28.671875 25.015625 27.121094 L 25.019531 24.296875 L 25.308594 24.105469 C 27.570312 22.578125 28.152344 19.527344 26.613281 17.226562 L 26.28125 16.726562 L 26.25 9.902344 L 26.222656 3.074219 L 26.058594 2.59375 C 25.671875 1.449219 24.800781 0.578125 23.648438 0.191406 L 23.175781 0.0273438 L 15.175781 0.0195312 C 10.777344 0.015625 7.050781 0.0351562 6.898438 0.0585938 Z M 23.574219 17.746094 C 25.964844 18.917969 25.15625 22.46875 22.5 22.46875 C 20.363281 22.46875 19.238281 20.085938 20.574219 18.390625 C 21.226562 17.5625 22.601562 17.265625 23.574219 17.746094 Z M 23.574219 17.746094 "/>
<path style=" stroke:none;fill-rule:nonzero;fill:rgb(0%,0%,0%);fill-opacity:1;" d="M 8.769531 5.019531 C 8.75 5.042969 8.730469 5.605469 8.730469 6.277344 L 8.730469 7.5 L 21.273438 7.5 L 21.253906 6.253906 L 21.242188 5.007812 L 15.023438 4.996094 C 11.609375 4.984375 8.792969 4.996094 8.769531 5.019531 Z M 8.769531 5.019531 "/>
<path style=" stroke:none;fill-rule:nonzero;fill:rgb(0%,0%,0%);fill-opacity:1;" d="M 8.765625 10.070312 C 8.75 10.09375 8.738281 10.644531 8.75 11.285156 L 8.761719 12.449219 L 21.242188 12.449219 L 21.242188 10.046875 L 15.019531 10.035156 C 11.597656 10.023438 8.785156 10.042969 8.765625 10.070312 Z M 8.765625 10.070312 "/>
<path style=" stroke:none;fill-rule:nonzero;fill:rgb(0%,0%,0%);fill-opacity:1;" d="M 8.746094 16.246094 L 8.761719 17.488281 L 11.878906 17.503906 L 15 17.519531 L 15 15 L 8.726562 15 Z M 8.746094 16.246094 "/>
</g>
</svg>
