<?xml version="1.0" standalone="no"?>
<!DOCTYPE svg PUBLIC "-//W3C//DTD SVG 20010904//EN"
 "http://www.w3.org/TR/2001/REC-SVG-20010904/DTD/svg10.dtd">
<svg version="1.0" xmlns="http://www.w3.org/2000/svg"
 width="97.000000pt" height="32.000000pt" viewBox="0 0 97.000000 32.000000"
 preserveAspectRatio="xMidYMid meet">

<g transform="translate(0.000000,32.000000) scale(0.100000,-0.100000)"
fill="#000000" stroke="none">
<path d="M0 160 l0 -160 485 0 485 0 0 160 0 160 -485 0 -485 0 0 -160z m739
4 c-9 -11 -15 -12 -25 -3 -11 9 -12 15 -3 25 9 11 15 12 25 3 11 -9 12 -15 3
-25z m-56 -14 c12 -15 24 -18 47 -14 27 6 31 3 46 -32 l16 -39 17 35 c14 30
21 34 56 36 57 3 87 -19 83 -59 -5 -57 -78 -70 -104 -18 -11 21 -11 21 -22 -4
-17 -36 -47 -32 -63 7 l-13 33 -3 -32 c-6 -50 -33 -43 -33 7 0 28 -4 40 -14
40 -23 0 -26 -14 -10 -44 18 -37 18 -38 -8 -34 -16 2 -27 14 -35 38 l-12 35 0
-37 -1 -38 -92 3 -93 2 -10 33 c-12 42 -25 41 -25 -3 0 -32 -2 -34 -32 -33
-18 0 -37 -1 -43 -2 -19 -5 -34 0 -49 16 -21 21 -20 50 2 72 16 16 34 19 122
17 93 -2 105 -4 121 -23 18 -23 59 -30 59 -11 0 6 -9 9 -20 6 -11 -3 -22 -1
-25 3 -9 14 33 31 59 24 18 -4 27 -1 36 15 13 26 21 26 43 1z"/>
<path d="M311 96 c-18 -21 -5 -37 30 -34 20 2 29 8 29 20 0 10 -4 18 -9 18 -5
0 -16 2 -24 5 -7 3 -19 -1 -26 -9z"/>
<path d="M470 100 c0 -5 9 -10 21 -10 11 0 17 5 14 10 -3 6 -13 10 -21 10 -8
0 -14 -4 -14 -10z"/>
<path d="M881 101 c-19 -12 -6 -41 19 -41 16 0 21 5 18 22 -3 25 -17 32 -37
19z"/>
<path d="M476 60 c7 -7 19 -7 35 -1 23 9 22 10 -10 10 -24 1 -32 -2 -25 -9z"/>
<path d="M570 60 c0 -5 7 -10 15 -10 8 0 15 5 15 10 0 6 -7 10 -15 10 -8 0
-15 -4 -15 -10z"/>
</g>
</svg>
