<?xml version="1.0" standalone="no"?>
<!DOCTYPE svg PUBLIC "-//W3C//DTD SVG 20010904//EN"
 "http://www.w3.org/TR/2001/REC-SVG-20010904/DTD/svg10.dtd">
<svg version="1.0" xmlns="http://www.w3.org/2000/svg"
 width="4096.000000pt" height="1349.000000pt" viewBox="0 0 4096.000000 1349.000000"
 preserveAspectRatio="xMidYMid meet">

<g transform="translate(0.000000,1349.000000) scale(0.100000,-0.100000)"
fill="#000000" stroke="none">
<path d="M0 6745 l0 -6745 20480 0 20480 0 0 6745 0 6745 -20480 0 -20480 0 0
-6745z m30807 1794 c207 -373 250 -437 402 -592 149 -152 327 -277 586 -409
186 -96 215 -113 215 -125 0 -12 -28 -30 -155 -98 -38 -21 -74 -41 -80 -45 -5
-4 -68 -40 -140 -80 -158 -88 -289 -185 -414 -305 -151 -146 -229 -259 -400
-582 -62 -117 -116 -213 -120 -213 -13 0 -52 64 -161 265 -178 329 -275 456
-475 624 -124 105 -374 265 -570 367 -55 28 -101 58 -103 67 -3 12 51 43 210
120 197 97 223 113 348 213 271 219 388 350 511 577 40 73 80 143 89 157 10
14 44 76 76 138 32 62 63 111 69 109 5 -2 56 -86 112 -188z m-4787 -1238 c0
-5 -7 -12 -16 -15 -14 -5 -15 -4 -4 9 14 17 20 19 20 6z m2504 -913 c2 -362 6
-661 9 -665 4 -3 261 -7 573 -8 480 -1 567 -3 575 -16 10 -17 12 -1179 1
-1195 -5 -7 -175 -10 -567 -10 -308 1 -568 -2 -577 -6 -17 -7 -18 -50 -18
-702 0 -872 5 -931 96 -1122 78 -162 181 -247 363 -296 61 -17 118 -22 291
-27 l215 -6 3 -623 2 -622 -27 -12 c-19 -8 -136 -12 -363 -12 -268 -1 -361 3
-464 17 -246 34 -504 105 -659 183 -73 37 -232 140 -291 188 -151 124 -329
395 -401 610 -19 59 -69 279 -98 431 -19 105 -20 151 -24 1030 -1 506 -5 930
-8 943 l-5 22 -238 -2 -237 -3 3 -35 c1 -19 12 -72 22 -117 50 -204 53 -309
57 -1802 2 -767 0 -1398 -4 -1402 -9 -9 -1361 -15 -1370 -5 -3 3 -5 89 -4 191
1 102 -1 185 -6 185 -4 0 -32 -24 -63 -54 -84 -82 -235 -191 -325 -236 -104
-51 -327 -125 -435 -144 -47 -8 -152 -20 -235 -26 -587 -47 -1095 116 -1434
460 -105 106 -175 200 -211 284 -10 25 -23 46 -28 46 -5 0 -51 -44 -103 -99
-91 -95 -251 -231 -335 -284 -119 -75 -361 -190 -497 -236 -176 -60 -478 -136
-597 -150 -470 -57 -823 -34 -1218 79 -232 66 -323 100 -462 173 -363 190
-552 334 -753 572 -207 247 -334 476 -441 795 -97 292 -123 473 -113 810 10
329 24 409 138 752 27 81 49 149 49 151 0 28 -316 3 -430 -34 -235 -77 -472
-307 -571 -554 -49 -124 -115 -352 -128 -445 -7 -47 -15 -96 -18 -110 -4 -14
-9 -497 -12 -1075 l-6 -1050 -675 0 -675 0 0 348 c0 191 -2 347 -4 347 -2 0
-51 -46 -110 -103 -59 -56 -163 -141 -232 -189 -128 -90 -453 -268 -571 -312
-87 -33 -381 -122 -461 -140 -266 -61 -743 -58 -1032 5 -106 23 -357 101 -436
134 -110 47 -323 156 -407 206 -343 210 -648 541 -836 910 -118 229 -146 314
-215 639 -82 385 -77 558 28 1002 28 114 62 242 77 285 31 88 177 381 215 434
15 18 58 77 96 129 221 299 502 532 860 714 155 78 350 150 548 200 265 68
845 75 1136 15 196 -40 489 -145 658 -236 245 -131 404 -248 635 -467 26 -25
49 -46 50 -46 0 0 -1 160 -3 355 -3 340 -2 355 15 356 68 2 1337 -1 1340 -4 2
-2 5 -127 6 -278 1 -150 4 -334 6 -408 3 -132 3 -133 23 -115 11 10 52 63 92
118 104 146 215 265 348 376 186 155 270 206 477 290 140 56 192 68 416 92
194 22 198 22 212 3 11 -15 14 -87 14 -374 l0 -354 73 69 c180 174 397 325
622 434 66 32 209 88 317 124 272 91 350 101 783 101 436 0 526 -14 875 -132
473 -160 886 -465 1133 -836 114 -171 200 -350 278 -577 38 -110 74 -326 94
-565 9 -104 20 -194 25 -198 4 -5 42 18 83 51 143 114 348 226 495 273 325
102 427 125 702 159 160 20 733 41 1084 40 l29 0 -7 62 c-18 158 -188 354
-382 439 -181 80 -601 90 -862 20 -74 -20 -393 -141 -457 -173 -75 -38 -300
-170 -339 -199 -22 -16 -44 -29 -49 -29 -4 0 -28 42 -51 93 -24 50 -75 155
-113 232 -187 376 -248 495 -284 547 -22 32 -39 63 -39 69 0 15 -2 13 205 159
242 172 447 291 626 365 148 61 390 141 509 168 79 18 364 39 555 40 384 2
619 -35 929 -147 209 -76 355 -157 521 -290 50 -40 107 -85 128 -101 l37 -28
-2 244 -3 244 450 5 450 5 2 650 c2 358 5 656 8 663 3 10 145 12 681 10 l676
-3 2 -657z m9664 -613 c525 -55 1106 -334 1476 -710 174 -178 300 -354 415
-584 117 -235 155 -353 211 -656 37 -202 51 -487 31 -640 -29 -220 -85 -474
-139 -620 -28 -77 -146 -309 -199 -393 -152 -241 -361 -468 -578 -632 -206
-156 -491 -302 -720 -370 -359 -107 -343 -104 -593 -127 -167 -15 -214 -16
-384 -5 -257 16 -355 32 -555 92 -219 65 -278 88 -457 177 -285 142 -470 276
-670 484 -199 208 -338 422 -478 739 -53 120 -113 334 -134 485 -12 85 -28
349 -35 593 -1 34 -4 62 -5 62 -2 0 -11 -17 -20 -37 -10 -21 -25 -49 -35 -63
-9 -14 -45 -88 -79 -165 -35 -77 -92 -201 -127 -275 -36 -74 -73 -155 -83
-180 -10 -25 -59 -133 -110 -240 -50 -107 -103 -222 -117 -255 -14 -33 -43
-96 -66 -140 -40 -79 -68 -140 -297 -635 -65 -140 -136 -295 -159 -343 -23
-48 -51 -114 -63 -145 -11 -31 -23 -60 -27 -64 -4 -4 -314 -8 -690 -8 -568 -1
-687 1 -698 13 -13 13 -194 401 -358 767 -45 102 -94 205 -108 230 -14 25 -42
86 -62 135 -21 50 -71 162 -112 250 -42 88 -98 212 -125 275 -27 63 -63 140
-80 170 -17 30 -61 123 -98 205 -38 83 -127 278 -200 435 -72 157 -159 346
-191 420 -72 162 -214 448 -231 465 -2 2 -2 -752 0 -1675 l3 -1679 -23 -6
c-13 -3 -318 -4 -678 -3 l-655 3 -5 2290 c-3 1260 -1 2293 3 2296 5 3 538 5
1184 3 965 -2 1178 -5 1188 -16 7 -7 49 -98 93 -203 44 -104 117 -278 162
-385 45 -107 102 -241 126 -296 24 -56 44 -104 44 -107 0 -3 68 -165 151 -359
83 -194 176 -414 206 -488 30 -74 88 -212 129 -306 40 -95 83 -196 95 -225
104 -266 228 -539 243 -539 6 0 17 19 24 43 21 64 167 410 217 512 25 50 67
149 94 221 27 73 63 158 79 190 34 67 56 121 106 249 19 50 62 153 96 230 34
77 77 183 97 235 20 52 56 140 80 195 49 108 127 295 175 415 16 41 55 134 87
205 32 72 84 196 115 276 l56 146 178 6 c270 10 1380 9 1385 0 5 -9 -31 -96
-108 -258 -123 -262 -188 -415 -179 -424 2 -3 35 25 72 61 196 193 522 410
752 501 119 48 324 118 405 138 212 55 651 75 953 44z"/>
<path d="M20332 4640 c-64 -10 -113 -25 -130 -37 -15 -11 -70 -41 -122 -68
-81 -42 -110 -64 -200 -154 -58 -58 -128 -140 -155 -181 -50 -75 -145 -256
-145 -276 0 -15 462 -24 1298 -24 l695 0 -7 43 c-8 50 -62 177 -108 254 -42
72 -195 228 -271 277 -32 21 -104 60 -159 87 -188 93 -445 122 -696 79z"/>
<path d="M13695 4475 c-75 -20 -235 -80 -291 -108 -164 -83 -370 -291 -455
-459 -88 -175 -136 -445 -110 -618 14 -92 64 -263 101 -346 74 -166 228 -334
421 -460 137 -89 299 -134 513 -141 171 -6 239 3 395 53 111 35 266 121 370
204 54 44 220 244 221 266 0 6 8 18 18 27 16 15 20 15 51 -4 73 -44 852 -451
856 -447 10 10 5 1933 -5 1936 -5 2 -44 -15 -87 -38 -43 -23 -188 -99 -323
-170 -330 -171 -400 -209 -433 -232 -15 -11 -34 -18 -41 -15 -7 3 -39 43 -71
89 -33 45 -82 107 -109 137 -70 74 -220 185 -297 220 -85 38 -270 98 -343 111
-84 14 -320 12 -381 -5z"/>
<path d="M19555 3050 c-16 -26 76 -230 157 -349 74 -108 217 -235 323 -288 85
-43 344 -129 444 -147 96 -18 343 -21 467 -6 75 9 118 22 324 95 182 64 383
194 483 312 63 75 80 83 115 55 85 -67 629 -398 639 -388 3 2 7 69 9 148 5
171 26 328 55 406 31 87 39 115 39 143 l0 26 -1525 1 c-927 1 -1527 -3 -1530
-8z"/>
<path d="M24605 3010 c-209 -13 -344 -43 -460 -102 -110 -56 -199 -121 -233
-171 -71 -104 -99 -260 -68 -390 23 -99 44 -132 143 -228 77 -76 98 -90 169
-117 107 -41 263 -72 363 -72 98 0 296 39 402 78 235 89 418 314 449 556 10
79 13 416 4 440 -5 14 -43 16 -333 14 -179 0 -375 -4 -436 -8z"/>
<path d="M37685 4484 c-115 -29 -283 -88 -360 -126 -67 -34 -211 -146 -271
-211 -73 -79 -165 -220 -205 -315 -95 -228 -103 -539 -20 -779 104 -302 370
-564 671 -662 215 -71 479 -68 714 6 101 32 137 50 258 130 213 142 372 367
446 632 24 85 27 113 26 251 0 130 -4 170 -23 244 -51 195 -148 373 -271 496
-142 142 -312 241 -526 305 -78 24 -110 28 -254 31 -91 1 -174 1 -185 -2z"/>
</g>
</svg>
