<?xml version="1.0" encoding="UTF-8"?>
<svg xmlns="http://www.w3.org/2000/svg" xmlns:xlink="http://www.w3.org/1999/xlink" width="24px" height="24px" viewBox="0 0 24 24" version="1.1">
<g id="surface1">
<path style=" stroke:none;fill-rule:nonzero;fill:rgb(0%,0%,0%);fill-opacity:1;" d="M 11.578125 0.03125 C 11.320312 0.0742188 10.871094 0.25 10.613281 0.402344 C 10.265625 0.613281 10.09375 0.777344 9.746094 1.226562 C 9.425781 1.644531 9.273438 1.773438 8.882812 1.949219 C 8.574219 2.09375 8.367188 2.105469 7.351562 2.039062 C 6.835938 2.007812 6.773438 2.011719 6.40625 2.125 C 5.535156 2.398438 4.929688 3.003906 4.613281 3.9375 C 4.542969 4.144531 4.527344 4.296875 4.542969 4.734375 C 4.578125 6.046875 4.574219 6.148438 4.460938 6.390625 C 4.3125 6.722656 4.101562 6.964844 3.742188 7.226562 C 2.929688 7.820312 2.53125 8.558594 2.53125 9.492188 C 2.53125 10.40625 2.910156 11.160156 3.632812 11.695312 C 4.054688 12.007812 4.292969 12.273438 4.449219 12.605469 C 4.550781 12.828125 4.570312 12.929688 4.570312 13.3125 C 4.566406 13.554688 4.550781 13.925781 4.527344 14.132812 C 4.367188 15.734375 5.785156 17.148438 7.402344 16.988281 C 7.621094 16.96875 7.996094 16.949219 8.226562 16.949219 C 8.585938 16.945312 8.6875 16.964844 8.910156 17.066406 C 9.242188 17.222656 9.507812 17.460938 9.820312 17.882812 C 10.34375 18.59375 11.132812 18.992188 12 18.992188 C 12.875 18.992188 13.636719 18.609375 14.199219 17.867188 C 14.539062 17.417969 14.757812 17.226562 15.09375 17.066406 C 15.3125 16.964844 15.417969 16.945312 15.773438 16.949219 C 16.007812 16.949219 16.378906 16.96875 16.597656 16.988281 C 17.929688 17.117188 19.152344 16.199219 19.433594 14.859375 C 19.480469 14.632812 19.5 14.398438 19.480469 14.203125 C 19.390625 13.179688 19.390625 13.015625 19.5 12.734375 C 19.636719 12.378906 19.835938 12.121094 20.203125 11.835938 C 20.859375 11.328125 21.234375 10.808594 21.398438 10.191406 C 21.488281 9.84375 21.488281 9.148438 21.398438 8.8125 C 21.234375 8.199219 20.84375 7.664062 20.226562 7.203125 C 19.847656 6.921875 19.574219 6.558594 19.46875 6.191406 C 19.40625 5.984375 19.402344 5.84375 19.433594 5.484375 C 19.496094 4.75 19.480469 4.222656 19.386719 3.9375 C 19.132812 3.183594 18.632812 2.585938 18 2.28125 C 17.492188 2.042969 17.21875 1.996094 16.613281 2.039062 C 15.671875 2.105469 15.425781 2.09375 15.132812 1.953125 C 14.746094 1.78125 14.558594 1.621094 14.25 1.214844 C 13.882812 0.734375 13.601562 0.496094 13.148438 0.28125 C 12.640625 0.0390625 12.078125 -0.0507812 11.578125 0.03125 Z M 12.984375 10.007812 L 12.984375 15 L 11.015625 15 L 11.015625 11.71875 C 11.015625 9.914062 11 8.4375 10.984375 8.4375 C 10.960938 8.433594 10.785156 8.605469 10.589844 8.820312 L 10.226562 9.207031 L 9.535156 8.53125 C 9.148438 8.160156 8.835938 7.832031 8.835938 7.804688 C 8.835938 7.773438 9.425781 7.132812 10.148438 6.382812 L 11.460938 5.019531 L 12.226562 5.015625 L 12.984375 5.015625 Z M 12.984375 10.007812 "/>
<path style=" stroke:none;fill-rule:nonzero;fill:rgb(0%,0%,0%);fill-opacity:1;" d="M 1.492188 17.234375 C 0.703125 18.03125 0.207031 18.566406 0.136719 18.703125 C 0.0507812 18.867188 0.0273438 18.988281 0.0273438 19.242188 C 0.03125 19.757812 0.257812 20.109375 0.726562 20.324219 C 0.914062 20.410156 1.195312 20.457031 2.109375 20.558594 C 2.742188 20.625 3.273438 20.695312 3.285156 20.714844 C 3.304688 20.726562 3.375 21.265625 3.445312 21.914062 C 3.523438 22.679688 3.601562 23.152344 3.652344 23.273438 C 3.753906 23.503906 3.980469 23.738281 4.238281 23.875 C 4.515625 24.019531 5.007812 24.015625 5.296875 23.863281 C 5.4375 23.792969 6.121094 23.140625 7.34375 21.929688 L 9.179688 20.09375 L 8.769531 19.691406 C 8.546875 19.472656 8.296875 19.210938 8.222656 19.109375 L 8.085938 18.9375 L 7.6875 18.988281 C 7.222656 19.046875 6.695312 19.011719 6.160156 18.890625 C 5.246094 18.679688 4.597656 18.324219 3.933594 17.671875 C 3.460938 17.207031 3.1875 16.832031 2.9375 16.296875 C 2.859375 16.125 2.785156 15.984375 2.765625 15.984375 C 2.75 15.984375 2.179688 16.546875 1.492188 17.234375 Z M 1.492188 17.234375 "/>
<path style=" stroke:none;fill-rule:nonzero;fill:rgb(0%,0%,0%);fill-opacity:1;" d="M 21.097656 16.226562 C 20.796875 16.945312 20.101562 17.769531 19.386719 18.238281 C 18.5 18.824219 17.300781 19.117188 16.3125 18.984375 L 15.914062 18.933594 L 15.800781 19.085938 C 15.734375 19.171875 15.492188 19.433594 15.253906 19.667969 L 14.820312 20.09375 L 16.65625 21.929688 C 17.867188 23.132812 18.5625 23.792969 18.703125 23.863281 C 19.027344 24.03125 19.492188 24.019531 19.820312 23.839844 C 20.089844 23.691406 20.320312 23.414062 20.394531 23.15625 C 20.417969 23.066406 20.5 22.476562 20.570312 21.84375 L 20.695312 20.695312 L 21.820312 20.570312 C 22.4375 20.5 23.054688 20.410156 23.179688 20.371094 C 23.445312 20.289062 23.722656 20.046875 23.875 19.761719 C 24.019531 19.484375 24.015625 18.988281 23.863281 18.703125 C 23.792969 18.566406 23.300781 18.039062 22.507812 17.234375 C 21.820312 16.546875 21.25 15.984375 21.230469 15.984375 C 21.214844 15.984375 21.15625 16.097656 21.097656 16.226562 Z M 21.097656 16.226562 "/>
</g>
</svg>
