<?xml version="1.0" encoding="UTF-8"?>
<svg xmlns="http://www.w3.org/2000/svg" xmlns:xlink="http://www.w3.org/1999/xlink" width="50px" height="50px" viewBox="0 0 50 50" version="1.1">
<g id="surface1">
<path style=" stroke:none;fill-rule:nonzero;fill:rgb(0%,0%,0%);fill-opacity:1;" d="M 24.121094 0.0664062 C 23.585938 0.15625 22.648438 0.515625 22.109375 0.839844 C 21.386719 1.277344 21.027344 1.621094 20.304688 2.558594 C 19.640625 3.425781 19.316406 3.691406 18.507812 4.0625 C 17.863281 4.363281 17.433594 4.382812 15.3125 4.246094 C 14.238281 4.179688 14.113281 4.1875 13.351562 4.421875 C 11.535156 5 10.273438 6.257812 9.609375 8.203125 C 9.464844 8.632812 9.433594 8.953125 9.464844 9.863281 C 9.542969 12.597656 9.53125 12.8125 9.296875 13.308594 C 8.984375 14.003906 8.546875 14.511719 7.792969 15.058594 C 6.105469 16.289062 5.273438 17.832031 5.273438 19.773438 C 5.273438 21.679688 6.066406 23.25 7.570312 24.363281 C 8.449219 25.019531 8.945312 25.566406 9.269531 26.257812 C 9.484375 26.726562 9.523438 26.933594 9.523438 27.734375 C 9.511719 28.242188 9.484375 29.011719 9.433594 29.441406 C 9.101562 32.78125 12.050781 35.722656 15.421875 35.390625 C 15.878906 35.351562 16.660156 35.3125 17.140625 35.3125 C 17.890625 35.300781 18.097656 35.339844 18.566406 35.554688 C 19.257812 35.878906 19.804688 36.375 20.460938 37.253906 C 21.554688 38.738281 23.195312 39.570312 25 39.570312 C 26.828125 39.570312 28.410156 38.769531 29.582031 37.226562 C 30.292969 36.289062 30.742188 35.886719 31.445312 35.554688 C 31.90625 35.339844 32.121094 35.300781 32.863281 35.3125 C 33.351562 35.3125 34.121094 35.351562 34.582031 35.390625 C 37.355469 35.664062 39.902344 33.75 40.488281 30.957031 C 40.585938 30.488281 40.625 30 40.585938 29.589844 C 40.402344 27.460938 40.402344 27.117188 40.625 26.53125 C 40.910156 25.789062 41.328125 25.253906 42.089844 24.65625 C 43.457031 23.601562 44.238281 22.519531 44.582031 21.230469 C 44.765625 20.507812 44.765625 19.0625 44.582031 18.359375 C 44.238281 17.078125 43.429688 15.964844 42.140625 15.007812 C 41.347656 14.421875 40.78125 13.660156 40.558594 12.898438 C 40.429688 12.46875 40.421875 12.175781 40.488281 11.425781 C 40.617188 9.890625 40.585938 8.796875 40.390625 8.203125 C 39.863281 6.628906 38.820312 5.390625 37.5 4.753906 C 36.445312 4.257812 35.871094 4.160156 34.609375 4.246094 C 32.648438 4.382812 32.140625 4.363281 31.523438 4.070312 C 30.722656 3.710938 30.332031 3.378906 29.6875 2.527344 C 28.925781 1.53125 28.339844 1.035156 27.394531 0.585938 C 26.339844 0.078125 25.167969 -0.109375 24.121094 0.0664062 Z M 27.050781 20.847656 L 27.050781 31.25 L 22.949219 31.25 L 22.949219 24.414062 C 22.949219 20.652344 22.921875 17.578125 22.882812 17.578125 C 22.832031 17.566406 22.472656 17.929688 22.0625 18.378906 L 21.308594 19.179688 L 19.863281 17.773438 C 19.0625 17 18.410156 16.316406 18.410156 16.257812 C 18.410156 16.191406 19.640625 14.863281 21.144531 13.300781 L 23.878906 10.457031 L 25.46875 10.449219 L 27.050781 10.449219 Z M 27.050781 20.847656 "/>
<path style=" stroke:none;fill-rule:nonzero;fill:rgb(0%,0%,0%);fill-opacity:1;" d="M 3.105469 35.90625 C 1.464844 37.566406 0.429688 38.679688 0.285156 38.964844 C 0.109375 39.304688 0.0585938 39.558594 0.0585938 40.085938 C 0.0703125 41.160156 0.539062 41.894531 1.515625 42.34375 C 1.90625 42.519531 2.492188 42.617188 4.394531 42.832031 C 5.714844 42.96875 6.816406 43.113281 6.847656 43.152344 C 6.886719 43.183594 7.03125 44.304688 7.179688 45.652344 C 7.34375 47.246094 7.5 48.230469 7.609375 48.484375 C 7.824219 48.964844 8.292969 49.453125 8.828125 49.734375 C 9.40625 50.039062 10.429688 50.03125 11.035156 49.714844 C 11.328125 49.570312 12.753906 48.210938 15.304688 45.683594 L 19.121094 41.863281 L 18.273438 41.023438 C 17.804688 40.566406 17.285156 40.019531 17.128906 39.8125 L 16.847656 39.453125 L 16.015625 39.558594 C 15.050781 39.675781 13.945312 39.609375 12.832031 39.355469 C 10.929688 38.914062 9.582031 38.171875 8.195312 36.816406 C 7.207031 35.847656 6.640625 35.066406 6.125 33.953125 C 5.957031 33.59375 5.800781 33.300781 5.761719 33.300781 C 5.734375 33.300781 4.542969 34.472656 3.105469 35.90625 Z M 3.105469 35.90625 "/>
<path style=" stroke:none;fill-rule:nonzero;fill:rgb(0%,0%,0%);fill-opacity:1;" d="M 43.957031 33.808594 C 43.332031 35.300781 41.875 37.019531 40.390625 37.996094 C 38.546875 39.21875 36.046875 39.824219 33.984375 39.550781 L 33.15625 39.441406 L 32.921875 39.765625 C 32.785156 39.941406 32.277344 40.488281 31.777344 40.976562 L 30.878906 41.863281 L 34.699219 45.683594 C 37.226562 48.191406 38.671875 49.570312 38.964844 49.714844 C 39.640625 50.070312 40.605469 50.039062 41.289062 49.667969 C 41.855469 49.355469 42.335938 48.777344 42.492188 48.242188 C 42.539062 48.054688 42.707031 46.824219 42.851562 45.507812 L 43.117188 43.113281 L 45.460938 42.851562 C 46.75 42.703125 48.027344 42.519531 48.292969 42.441406 C 48.847656 42.265625 49.425781 41.765625 49.738281 41.171875 C 50.039062 40.59375 50.03125 39.558594 49.71875 38.964844 C 49.570312 38.679688 48.546875 37.578125 46.894531 35.90625 C 45.460938 34.472656 44.269531 33.300781 44.230469 33.300781 C 44.199219 33.300781 44.074219 33.535156 43.957031 33.808594 Z M 43.957031 33.808594 "/>
</g>
</svg>
