<?xml version="1.0" encoding="UTF-8"?>
<svg xmlns="http://www.w3.org/2000/svg" xmlns:xlink="http://www.w3.org/1999/xlink" width="20px" height="20px" viewBox="0 0 20 20" version="1.1">
<g id="surface1">
<path style=" stroke:none;fill-rule:nonzero;fill:rgb(0%,0%,0%);fill-opacity:1;" d="M 9.648438 0.0273438 C 9.433594 0.0625 9.058594 0.207031 8.84375 0.335938 C 8.554688 0.511719 8.410156 0.648438 8.121094 1.023438 C 7.855469 1.371094 7.726562 1.476562 7.402344 1.625 C 7.144531 1.746094 6.972656 1.753906 6.125 1.699219 C 5.695312 1.671875 5.644531 1.675781 5.339844 1.769531 C 4.613281 2 4.109375 2.503906 3.84375 3.28125 C 3.785156 3.453125 3.773438 3.582031 3.785156 3.945312 C 3.816406 5.039062 3.8125 5.125 3.71875 5.324219 C 3.59375 5.601562 3.417969 5.804688 3.117188 6.023438 C 2.441406 6.515625 2.109375 7.132812 2.109375 7.910156 C 2.109375 8.671875 2.425781 9.300781 3.027344 9.746094 C 3.378906 10.007812 3.578125 10.226562 3.707031 10.503906 C 3.792969 10.691406 3.808594 10.773438 3.808594 11.09375 C 3.804688 11.296875 3.792969 11.605469 3.773438 11.777344 C 3.640625 13.113281 4.820312 14.289062 6.167969 14.15625 C 6.351562 14.140625 6.664062 14.125 6.855469 14.125 C 7.15625 14.121094 7.238281 14.136719 7.425781 14.222656 C 7.703125 14.351562 7.921875 14.550781 8.183594 14.902344 C 8.621094 15.496094 9.277344 15.828125 10 15.828125 C 10.730469 15.828125 11.363281 15.507812 11.832031 14.890625 C 12.117188 14.515625 12.296875 14.355469 12.578125 14.222656 C 12.761719 14.136719 12.847656 14.121094 13.144531 14.125 C 13.339844 14.125 13.648438 14.140625 13.832031 14.15625 C 14.941406 14.265625 15.960938 13.5 16.195312 12.382812 C 16.234375 12.195312 16.25 12 16.234375 11.835938 C 16.160156 10.984375 16.160156 10.847656 16.25 10.613281 C 16.363281 10.316406 16.53125 10.101562 16.835938 9.863281 C 17.382812 9.441406 17.695312 9.007812 17.832031 8.492188 C 17.90625 8.203125 17.90625 7.625 17.832031 7.34375 C 17.695312 6.832031 17.371094 6.386719 16.855469 6.003906 C 16.539062 5.769531 16.3125 5.464844 16.222656 5.160156 C 16.171875 4.988281 16.167969 4.871094 16.195312 4.570312 C 16.246094 3.957031 16.234375 3.519531 16.15625 3.28125 C 15.945312 2.652344 15.527344 2.15625 15 1.902344 C 14.578125 1.703125 14.347656 1.664062 13.84375 1.699219 C 13.058594 1.753906 12.855469 1.746094 12.609375 1.628906 C 12.289062 1.484375 12.132812 1.351562 11.875 1.011719 C 11.570312 0.613281 11.335938 0.414062 10.957031 0.234375 C 10.535156 0.03125 10.066406 -0.0429688 9.648438 0.0273438 Z M 10.820312 8.339844 L 10.820312 12.5 L 9.179688 12.5 L 9.179688 9.765625 C 9.179688 8.261719 9.167969 7.03125 9.152344 7.03125 C 9.132812 7.027344 8.988281 7.171875 8.824219 7.351562 L 8.523438 7.671875 L 7.945312 7.109375 C 7.625 6.800781 7.363281 6.527344 7.363281 6.503906 C 7.363281 6.476562 7.855469 5.945312 8.457031 5.320312 L 9.550781 4.183594 L 10.1875 4.179688 L 10.820312 4.179688 Z M 10.820312 8.339844 "/>
<path style=" stroke:none;fill-rule:nonzero;fill:rgb(0%,0%,0%);fill-opacity:1;" d="M 1.242188 14.363281 C 0.585938 15.027344 0.171875 15.472656 0.113281 15.585938 C 0.0429688 15.722656 0.0234375 15.824219 0.0234375 16.035156 C 0.0273438 16.464844 0.214844 16.757812 0.605469 16.9375 C 0.761719 17.007812 0.996094 17.046875 1.757812 17.132812 C 2.285156 17.1875 2.726562 17.246094 2.738281 17.261719 C 2.753906 17.273438 2.8125 17.722656 2.871094 18.261719 C 2.9375 18.898438 3 19.292969 3.042969 19.394531 C 3.128906 19.585938 3.316406 19.78125 3.53125 19.894531 C 3.761719 20.015625 4.171875 20.011719 4.414062 19.886719 C 4.53125 19.828125 5.101562 19.285156 6.121094 18.273438 L 7.648438 16.746094 L 7.308594 16.410156 C 7.121094 16.226562 6.914062 16.007812 6.851562 15.925781 L 6.738281 15.78125 L 6.40625 15.824219 C 6.019531 15.871094 5.578125 15.84375 5.132812 15.742188 C 4.371094 15.566406 3.832031 15.269531 3.277344 14.726562 C 2.882812 14.339844 2.65625 14.027344 2.449219 13.582031 C 2.382812 13.4375 2.320312 13.320312 2.304688 13.320312 C 2.292969 13.320312 1.816406 13.789062 1.242188 14.363281 Z M 1.242188 14.363281 "/>
<path style=" stroke:none;fill-rule:nonzero;fill:rgb(0%,0%,0%);fill-opacity:1;" d="M 17.582031 13.523438 C 17.332031 14.121094 16.75 14.808594 16.15625 15.199219 C 15.417969 15.6875 14.417969 15.929688 13.59375 15.820312 L 13.261719 15.777344 L 13.167969 15.90625 C 13.113281 15.976562 12.910156 16.195312 12.710938 16.390625 L 12.351562 16.746094 L 13.878906 18.273438 C 14.890625 19.277344 15.46875 19.828125 15.585938 19.886719 C 15.855469 20.027344 16.242188 20.015625 16.515625 19.867188 C 16.742188 19.742188 16.933594 19.511719 16.996094 19.296875 C 17.015625 19.222656 17.082031 18.730469 17.140625 18.203125 L 17.246094 17.246094 L 18.183594 17.140625 C 18.699219 17.082031 19.210938 17.007812 19.316406 16.976562 C 19.539062 16.90625 19.769531 16.707031 19.894531 16.46875 C 20.015625 16.238281 20.011719 15.824219 19.886719 15.585938 C 19.828125 15.472656 19.417969 15.03125 18.757812 14.363281 C 18.183594 13.789062 17.707031 13.320312 17.691406 13.320312 C 17.679688 13.320312 17.628906 13.414062 17.582031 13.523438 Z M 17.582031 13.523438 "/>
</g>
</svg>
